<svg class="diagram-root" style="background: #f5f6f6" xmlns="http://www.w3.org/2000/svg" xmlns:xlink="http://www.w3.org/1999/xlink"><style>.diagram-root { font-family: "Helvetica Neue", sans-serif; font-size: 12px; } .t { overflow: visible; } .t-bg { y: 40; fill: #fff;   } .th { fill: #005aa0;   } .tht { fill: #fff; font-size: 14px;  } .tf { fill: #323c46; overflow: visible; } .tf.pk { fill: #005aa0; font-weight: bold; } .tf.fk { font-weight: bold; } .ty { fill: #adb1b5; font-weight: normal; text-anchor: end; } .r { fill: transparent; stroke: #c3c3c3; stroke-width: 1; } .l { stroke: 1; } .i { fill: #c2c7ce; stroke: #c2c7ce; } .i.ix { fill: #afb3b6; stroke: #000; } .fa { fill: transparent; overflow: visible; } .fa .bg.hover { fill: #f7f7f7; } .c { cy: 12; r: 4; stroke: #d2d2dc; fill: #d2d2dc; } .hr { fill: transparent; stroke: #323c46; stroke-opacity: 0.035; stroke-width: 13; } .dc { stroke: #fa5a3c; fill: #fa5a3c; } .x { stroke: white; stroke-width: 1; } .hl .th { fill: #1b9bff; } .hl .tht {  } .fhl .bg { fill: #e7f4ff; } .fhls .bg {  } .r.hl { stroke: #1b9bff; } .dim { opacity: 0.25; }</style><g class="drawing-wrapper" transform="translate(37.99999999999999, 8.66666666666669) scale(1,1)"><g class="rs"><path d="M 162.71 178.32999999999998 m -1, 0 a 1,1 0 1,0 2,0 a 1,1 0 1,0 -2,0 M 162.71 178.32999999999998 m -0.5, 0 a 0.5,0.5 0 1,0 1,0 a 0.5,0.5 0 1,0 -1,0  M162.71 178.32999999999998 L162.71 178.32999999999998 174.71 178.32999999999998 M 162.71 184.32999999999998 m -1, 0 a 1,1 0 1,0 2,0 a 1,1 0 1,0 -2,0 M 162.71 184.32999999999998 m -0.5, 0 a 0.5,0.5 0 1,0 1,0 a 0.5,0.5 0 1,0 -1,0  M162.71 184.32999999999998 L162.71 184.32999999999998 169.71 178.32999999999998 162.71 172.32999999999998 M 162.71 172.32999999999998 m -1, 0 a 1,1 0 1,0 2,0 a 1,1 0 1,0 -2,0 M 162.71 172.32999999999998 m -0.5, 0 a 0.5,0.5 0 1,0 1,0 a 0.5,0.5 0 1,0 -1,0  M174.71 178.32999999999998 Q 195.37 178.32999999999998, 216.02 145.67 T 257.33 113 M 269.33 113 m -1, 0 a 1,1 0 1,0 2,0 a 1,1 0 1,0 -2,0 M 269.33 113 m -0.5, 0 a 0.5,0.5 0 1,0 1,0 a 0.5,0.5 0 1,0 -1,0  M269.33 113 L269.33 113 257.33 113 M263.33 119 L263.33 119 263.33 107" id="h1372964962" class="r"></path><path d="M 580.34 333 m -1, 0 a 1,1 0 1,0 2,0 a 1,1 0 1,0 -2,0 M 580.34 333 m -0.5, 0 a 0.5,0.5 0 1,0 1,0 a 0.5,0.5 0 1,0 -1,0  M580.34 333 L580.34 333 568.34 333 M574.34 339 L574.34 339 574.34 327 M568.34 333 Q 533.92 333, 499.51 334.67 T 430.68 336.33 M 418.68 336.33 m -1, 0 a 1,1 0 1,0 2,0 a 1,1 0 1,0 -2,0 M 418.68 336.33 m -0.5, 0 a 0.5,0.5 0 1,0 1,0 a 0.5,0.5 0 1,0 -1,0  M418.68 336.33 L418.68 336.33 430.68 336.33 M424.68 342.33 L424.68 342.33 424.68 330.33" id="h3026835991" class="r"></path><path d="M 580.34 358 m -1, 0 a 1,1 0 1,0 2,0 a 1,1 0 1,0 -2,0 M 580.34 358 m -0.5, 0 a 0.5,0.5 0 1,0 1,0 a 0.5,0.5 0 1,0 -1,0  M580.34 358 L580.34 358 568.34 358 M 580.34 364 m -1, 0 a 1,1 0 1,0 2,0 a 1,1 0 1,0 -2,0 M 580.34 364 m -0.5, 0 a 0.5,0.5 0 1,0 1,0 a 0.5,0.5 0 1,0 -1,0  M580.34 364 L580.34 364 573.34 358 580.34 352 M 580.34 352 m -1, 0 a 1,1 0 1,0 2,0 a 1,1 0 1,0 -2,0 M 580.34 352 m -0.5, 0 a 0.5,0.5 0 1,0 1,0 a 0.5,0.5 0 1,0 -1,0  M568.34 358 Q 540.27 358, 512.19 235.5 T 456.04 113 M 444.04 113 m -1, 0 a 1,1 0 1,0 2,0 a 1,1 0 1,0 -2,0 M 444.04 113 m -0.5, 0 a 0.5,0.5 0 1,0 1,0 a 0.5,0.5 0 1,0 -1,0  M444.04 113 L444.04 113 456.04 113 M450.04 119 L450.04 119 450.04 107" id="h3682045385" class="r"></path><path d="M 418.68 361.33 m -1, 0 a 1,1 0 1,0 2,0 a 1,1 0 1,0 -2,0 M 418.68 361.33 m -0.5, 0 a 0.5,0.5 0 1,0 1,0 a 0.5,0.5 0 1,0 -1,0  M418.68 361.33 L418.68 361.33 430.68 361.33 M424.68 367.33 L424.68 367.33 424.68 355.33 M430.68 361.33 Q 465.1 361.33, 499.51 222.17 T 568.34 83 M 580.34 83 m -1, 0 a 1,1 0 1,0 2,0 a 1,1 0 1,0 -2,0 M 580.34 83 m -0.5, 0 a 0.5,0.5 0 1,0 1,0 a 0.5,0.5 0 1,0 -1,0  M580.34 83 L580.34 83 568.34 83 M574.34 89 L574.34 89 574.34 77" id="h450276696" class="r"></path><path d="M 269.33 138 m -1, 0 a 1,1 0 1,0 2,0 a 1,1 0 1,0 -2,0 M 269.33 138 m -0.5, 0 a 0.5,0.5 0 1,0 1,0 a 0.5,0.5 0 1,0 -1,0  M269.33 138 L269.33 138 257.33 138 M263.33 144 L263.33 144 263.33 132 M257.33 138 Q 236.68 138, 216.02 108.17 T 174.71 78.33 M 162.71 78.33 m -1, 0 a 1,1 0 1,0 2,0 a 1,1 0 1,0 -2,0 M 162.71 78.33 m -0.5, 0 a 0.5,0.5 0 1,0 1,0 a 0.5,0.5 0 1,0 -1,0  M162.71 78.33 L162.71 78.33 174.71 78.33 M168.71 84.33 L168.71 84.33 168.71 72.33" id="h2126697009" class="r"></path><path d="M 444.04 163 m -1, 0 a 1,1 0 1,0 2,0 a 1,1 0 1,0 -2,0 M 444.04 163 m -0.5, 0 a 0.5,0.5 0 1,0 1,0 a 0.5,0.5 0 1,0 -1,0  M444.04 163 L444.04 163 456.04 163 M450.04 169 L450.04 169 450.04 157 M456.04 163 Q 484.12 163, 512.19 123 T 568.34 83 M 580.34 83 m -1, 0 a 1,1 0 1,0 2,0 a 1,1 0 1,0 -2,0 M 580.34 83 m -0.5, 0 a 0.5,0.5 0 1,0 1,0 a 0.5,0.5 0 1,0 -1,0  M580.34 83 L580.34 83 568.34 83 M574.34 89 L574.34 89 574.34 77" id="h687640103" class="r"></path></g><g class="hrs"></g><g class="ts"><svg width="178.71" height="175" x="-16" y="21.33" id="h1537667952" class="t"><rect height="40" width="178.71" class="th"></rect><text x="13" y="25" class="tht">User</text><rect height="135" width="178.71" class="t-bg"></rect><text x="13" y="61" class="tf pk">UserID<tspan x="165.71" class="ty">int</tspan></text><path d="M7,14A2,2 0 0,1 5,12A2,2 0 0,1 7,10A2,2 0 0,1 9,12A2,2 0 0,1 7,14M12.65,10C11.83,7.67 9.61,6 7, 6A6, 6 0 0, 0 1, 12A6, 6 0 0, 0 7, 18C9.61, 18 11.83, 16.33 12.65, 14H17V18H21V14H23V10H12.65Z" class="i pk" transform="translate(133.036171875, 48) scale(0.65)"></path><text x="13" y="86" class="tf">Username<tspan x="165.71" class="ty">varchar(25)</tspan></text><path d="M22,18V22H18V19H15V16H12L9.74,13.74C9.19,13.91 8.61,14 8,14A6,6 0 0,1 2,8A6,6 0 0,1 8,2A6,6 0 0,1 14,8C14,8.61 13.91, 9.19 13.74, 9.74L22, 18M7, 5A2, 2 0 0, 0 5, 7A2, 2 0 0, 0 7, 9A2, 2 0 0, 0 9, 7A2, 2 0 0, 0 7, 5Z" class="i uq" transform="translate(88.35648437500001, 75.5) scale(0.5)"></path><text x="13" y="111" class="tf">Password<tspan x="165.71" class="ty">string</tspan></text><text x="13" y="136" class="tf">Email<tspan x="165.71" class="ty">varchar(50)</tspan></text><text x="13" y="161" class="tf fk">UserGamePointer<tspan x="165.71" class="ty">int?</tspan></text></svg><svg width="187.43" height="350" x="580.34" y="26" id="h2724772115" class="t"><rect height="40" width="187.43" class="th"></rect><text x="13" y="25" class="tht">Game</text><rect height="310" width="187.43" class="t-bg"></rect><text x="13" y="61" class="tf pk">GameID<tspan x="174.43" class="ty">int</tspan></text><path d="M7,14A2,2 0 0,1 5,12A2,2 0 0,1 7,10A2,2 0 0,1 9,12A2,2 0 0,1 7,14M12.65,10C11.83,7.67 9.61,6 7, 6A6, 6 0 0, 0 1, 12A6, 6 0 0, 0 7, 18C9.61, 18 11.83, 16.33 12.65, 14H17V18H21V14H23V10H12.65Z" class="i pk" transform="translate(141.756171875, 48) scale(0.65)"></path><text x="13" y="86" class="tf">Name<tspan x="174.43" class="ty">string</tspan></text><text x="13" y="111" class="tf">Slug<tspan x="174.43" class="ty">string</tspan></text><text x="13" y="136" class="tf">Summary<tspan x="174.43" class="ty">string</tspan></text><text x="13" y="161" class="tf">Storyline<tspan x="174.43" class="ty">string</tspan></text><text x="13" y="186" class="tf">AggregatedRating<tspan x="174.43" class="ty">double</tspan></text><text x="13" y="211" class="tf">AggregatedRatingCount<tspan x="174.43" class="ty">int</tspan></text><text x="13" y="236" class="tf">Hypes<tspan x="174.43" class="ty">int</tspan></text><text x="13" y="261" class="tf">Follows<tspan x="174.43" class="ty">int</tspan></text><text x="13" y="286" class="tf">FirstReleaseDate<tspan x="174.43" class="ty">unixTime</tspan></text><text x="13" y="311" class="tf fk">Cover<tspan x="174.43" class="ty">int</tspan></text><text x="13" y="336" class="tf fk">UserGamePointer<tspan x="174.43" class="ty">int</tspan></text></svg><svg width="122.68" height="200" x="296" y="279.33" id="h3590120424" class="t"><rect height="40" width="122.68" class="th"></rect><text x="13" y="25" class="tht">Cover</text><rect height="160" width="122.68" class="t-bg"></rect><text x="13" y="61" class="tf pk">CoverID<tspan x="109.68" class="ty">int</tspan></text><path d="M7,14A2,2 0 0,1 5,12A2,2 0 0,1 7,10A2,2 0 0,1 9,12A2,2 0 0,1 7,14M12.65,10C11.83,7.67 9.61,6 7, 6A6, 6 0 0, 0 1, 12A6, 6 0 0, 0 7, 18C9.61, 18 11.83, 16.33 12.65, 14H17V18H21V14H23V10H12.65Z" class="i pk" transform="translate(77.006171875, 48) scale(0.65)"></path><text x="13" y="86" class="tf fk">GameID<tspan x="109.68" class="ty">int</tspan></text><text x="13" y="111" class="tf">ImageID<tspan x="109.68" class="ty">string</tspan></text><text x="13" y="136" class="tf">URL<tspan x="109.68" class="ty">string</tspan></text><text x="13" y="161" class="tf">Height<tspan x="109.68" class="ty">int</tspan></text><text x="13" y="186" class="tf">Width<tspan x="109.68" class="ty">int</tspan></text></svg><svg width="174.71" height="125" x="269.33" y="56" id="h1026814115" class="t"><rect height="40" width="174.71" class="th"></rect><text x="13" y="25" class="tht">UserGame</text><rect height="85" width="174.71" class="t-bg"></rect><text x="13" y="61" class="tf pk">UserGamePointer<tspan x="161.71" class="ty">int</tspan></text><path d="M7,14A2,2 0 0,1 5,12A2,2 0 0,1 7,10A2,2 0 0,1 9,12A2,2 0 0,1 7,14M12.65,10C11.83,7.67 9.61,6 7, 6A6, 6 0 0, 0 1, 12A6, 6 0 0, 0 7, 18C9.61, 18 11.83, 16.33 12.65, 14H17V18H21V14H23V10H12.65Z" class="i pk" transform="translate(129.036171875, 48) scale(0.65)"></path><text x="13" y="86" class="tf fk">UserPointer<tspan x="161.71" class="ty">int</tspan></text><text x="13" y="111" class="tf fk">GamePointer<tspan x="161.71" class="ty">int</tspan></text></svg></g></g><text class="qdbd-link" x="10" y="20">www.quickdatabasediagrams.com</text></svg>